<?xml version="1.0" standalone="no"?>
<!DOCTYPE svg PUBLIC "-//W3C//DTD SVG 20010904//EN"
 "http://www.w3.org/TR/2001/REC-SVG-20010904/DTD/svg10.dtd">
<svg version="1.0" xmlns="http://www.w3.org/2000/svg"
 width="1900.000000pt" height="1900.000000pt" viewBox="0 0 1900.000000 1900.000000"
 preserveAspectRatio="xMidYMid meet">
<metadata>
Created by potrace 1.11, written by Peter Selinger 2001-2013
</metadata>
<g transform="translate(0.000000,1900.000000) scale(0.100000,-0.100000)"
fill="#000000" stroke="none">
<path d="M16390 15894 c-173 -37 -339 -171 -414 -336 -55 -121 -55 -123 -53
-893 l2 -710 23 -65 c13 -36 32 -80 43 -98 10 -18 19 -35 19 -38 0 -2 -21 13
-47 33 -27 20 -75 49 -108 64 -116 54 -137 55 -894 54 l-696 -1 -73 -27 c-214
-75 -359 -234 -406 -445 -14 -64 -16 -158 -16 -756 1 -651 2 -688 21 -756 11
-39 30 -93 44 -120 l24 -47 -72 47 c-78 52 -165 86 -249 96 -70 9 -1327 9
-1398 0 -94 -12 -208 -59 -282 -118 -21 -16 -38 -28 -38 -25 0 2 11 25 25 51
14 27 34 80 45 119 19 67 20 106 20 763 -1 660 -2 695 -21 764 -51 185 -168
324 -337 402 -118 54 -128 55 -882 53 -759 -2 -743 -1 -863 -61 -48 -25 -159
-107 -182 -136 -73 -91 -110 -161 -136 -258 -16 -59 -18 -131 -18 -758 -1
-717 -1 -731 42 -842 57 -150 202 -295 349 -347 99 -36 162 -39 858 -37 l685
1 80 26 c44 15 111 47 148 72 38 25 70 45 72 45 1 0 -10 -26 -26 -57 -59 -121
-59 -121 -56 -898 2 -736 1 -718 43 -812 8 -17 14 -34 14 -37 0 -18 78 -127
120 -167 75 -73 148 -117 255 -155 46 -16 109 -18 755 -20 434 -1 724 2 755 8
200 39 360 166 444 352 49 107 51 134 51 867 -1 659 -1 689 -21 760 -11 41
-31 94 -45 118 -13 24 -24 46 -24 48 0 3 17 -9 38 -25 74 -58 178 -105 267
-119 51 -8 1341 -9 1415 -1 70 8 180 49 245 92 115 77 206 198 248 331 22 69
22 75 22 790 0 789 2 763 -60 888 -14 26 -23 47 -21 47 2 0 21 -14 42 -31 55
-44 120 -75 206 -99 71 -19 95 -20 788 -17 393 1 724 5 735 9 235 74 390 228
445 443 19 73 20 112 20 764 0 578 -3 696 -16 751 -52 223 -239 409 -459 455
-100 21 -1397 21 -1495 -1z"/>
<path d="M4269 8508 c-3 -7 -4 -4155 -1 -4168 3 -13 25 -16 145 -15 l142 0 0
2093 0 2092 -142 0 c-79 0 -143 -1 -144 -2z"/>
<path d="M5731 8330 c-180 -61 -199 -290 -32 -388 39 -23 58 -27 121 -27 64 0
82 4 123 28 93 55 132 169 93 272 -41 106 -178 158 -305 115z"/>
<path d="M8710 7507 c-3 -3 -35 -7 -71 -11 -342 -32 -683 -170 -929 -375 -119
-99 -258 -259 -324 -373 -15 -27 -29 -48 -31 -48 -2 0 -4 156 -3 348 l0 347
-143 0 -144 0 0 -1535 0 -1535 143 0 142 -1 0 156 c1 85 1 538 2 1005 l0 850
35 70 c115 229 295 435 505 579 114 77 327 175 438 201 8 2 44 10 80 19 140
33 219 40 415 41 140 0 289 -10 305 -20 3 -2 25 -6 49 -10 61 -9 209 -59 288
-97 125 -60 266 -181 343 -293 60 -88 139 -261 154 -336 2 -13 9 -45 15 -72
36 -157 39 -239 40 -1171 1 -500 4 -912 7 -915 3 -3 69 -6 145 -6 l140 -1 -4
966 c-2 531 -7 983 -11 1005 -56 325 -109 474 -233 664 -48 74 -184 223 -248
271 -169 129 -421 231 -630 256 -22 3 -47 7 -55 10 -17 7 -414 17 -420 11z"/>
<path d="M12485 7495 c-504 -62 -893 -283 -1141 -646 -91 -135 -156 -274 -203
-441 -56 -197 -75 -338 -74 -559 0 -108 4 -165 18 -289 6 -55 39 -200 62 -275
128 -410 390 -717 766 -898 132 -63 313 -121 451 -143 21 -3 48 -7 59 -9 100
-20 430 -27 557 -13 548 63 1023 326 1281 712 21 32 39 52 40 45 4 -73 0 -507
-5 -549 -21 -179 -50 -289 -111 -419 -180 -378 -561 -606 -1105 -658 -99 -10
-393 -10 -500 -1 -325 29 -688 151 -965 326 l-79 50 -15 -21 c-9 -12 -41 -61
-73 -109 l-57 -88 58 -39 c92 -63 199 -121 321 -174 36 -16 74 -33 85 -38 27
-12 194 -65 280 -89 94 -26 322 -67 426 -77 107 -10 461 -10 559 0 41 4 111
14 155 22 44 8 91 16 105 19 178 29 458 146 621 257 85 59 229 190 289 264
167 206 266 472 296 790 8 90 9 2929 1 2943 -4 6 -60 9 -144 8 l-138 -1 -2
-295 c0 -162 -2 -312 -2 -333 l-1 -39 -52 79 c-76 114 -270 304 -399 390 -216
143 -473 243 -729 283 -41 6 -86 14 -100 16 -63 13 -431 12 -535 -1z m585
-259 c295 -50 459 -104 647 -214 209 -122 410 -324 548 -549 l38 -63 0 -549
c0 -369 -3 -554 -10 -563 -6 -7 -23 -35 -38 -62 -101 -185 -339 -421 -543
-539 -196 -114 -432 -189 -677 -214 -91 -9 -351 -9 -440 0 -591 62 -992 360
-1159 861 -14 43 -29 93 -32 110 -3 17 -9 51 -15 75 -24 109 -33 418 -16 561
48 397 238 722 540 921 49 33 90 59 92 59 2 0 36 15 77 34 134 63 290 106 475
130 97 13 441 14 513 2z"/>
<path d="M16905 7500 c-38 -4 -92 -11 -120 -15 -27 -4 -62 -9 -76 -11 -66 -9
-223 -48 -314 -78 -325 -109 -590 -295 -774 -546 -68 -92 -164 -280 -204 -400
-39 -113 -74 -289 -84 -413 -50 -670 185 -1212 661 -1525 223 -147 490 -240
821 -286 173 -24 526 -25 695 -1 380 54 697 178 935 366 45 36 186 178 226
229 137 171 241 402 288 635 31 156 32 169 36 360 4 206 -8 335 -45 490 -147
616 -594 1021 -1280 1159 -41 8 -102 18 -135 22 -33 3 -69 8 -80 11 -35 8
-477 11 -550 3z m510 -263 c11 -2 47 -8 80 -11 135 -16 353 -78 482 -138 419
-194 680 -578 720 -1058 19 -220 0 -443 -53 -630 -38 -136 -151 -352 -224
-430 -8 -9 -34 -37 -57 -62 -88 -97 -212 -188 -352 -258 -86 -43 -244 -101
-308 -115 -10 -2 -38 -8 -63 -13 -53 -12 -103 -20 -225 -36 -89 -12 -427 -14
-495 -3 -19 3 -57 9 -85 12 -76 10 -194 34 -246 51 -25 8 -54 16 -65 19 -34 7
-197 76 -254 107 -272 150 -466 379 -568 668 -53 152 -75 293 -76 490 -1 188
4 251 29 375 80 394 317 701 675 873 161 78 388 139 585 158 39 3 71 8 73 9 5
5 405 -3 427 -8z"/>
<path d="M5 7392 c-2 -2 2 -14 9 -26 7 -11 32 -56 55 -98 22 -43 60 -113 82
-155 23 -43 52 -96 64 -118 12 -22 43 -78 68 -125 24 -47 105 -197 179 -335
74 -137 159 -295 188 -350 29 -55 60 -113 70 -130 10 -16 41 -75 70 -130 29
-55 65 -122 80 -150 15 -27 45 -84 67 -125 22 -41 70 -129 105 -195 36 -66 81
-149 100 -185 139 -260 502 -936 505 -940 2 -2 74 -5 159 -5 l155 -1 81 151
c45 82 96 177 114 210 90 169 120 226 156 288 21 38 38 70 38 73 0 2 24 47 53
101 30 54 80 148 112 208 32 61 66 124 75 140 10 17 36 65 59 108 54 102 117
219 154 287 16 30 46 87 67 125 20 39 53 100 73 138 21 37 52 95 71 130 18 34
82 152 141 262 131 244 170 317 225 420 24 44 71 132 105 195 110 203 124 230
117 233 -4 2 -74 4 -157 3 l-149 -1 -34 -60 c-19 -33 -61 -112 -94 -175 -34
-63 -73 -137 -88 -165 -15 -27 -48 -88 -72 -135 -51 -95 -107 -200 -148 -275
-15 -27 -53 -99 -85 -160 -55 -105 -104 -197 -166 -312 -16 -29 -83 -155 -150
-280 -67 -125 -138 -259 -159 -298 -21 -38 -90 -169 -155 -290 -65 -121 -138
-258 -163 -305 -75 -141 -164 -305 -167 -308 -2 -2 -29 45 -61 105 -31 59 -71
133 -87 163 -16 30 -48 89 -69 130 -22 41 -53 98 -68 125 -15 28 -49 91 -75
140 -26 50 -94 176 -150 280 -98 182 -144 268 -243 455 -24 47 -53 99 -62 115
-10 17 -89 163 -175 325 -87 162 -172 322 -190 355 -33 61 -72 133 -153 285
-25 47 -64 119 -86 160 -23 41 -47 87 -54 101 l-14 26 -159 0 c-88 0 -161 -3
-164 -5z"/>
<path d="M5680 7316 c-3 -638 0 -2978 4 -2984 3 -6 247 -9 279 -3 4 0 7 691 7
1535 l0 1533 -145 0 -145 0 0 -81z"/>
</g>
</svg>
